<svg id="Layer_1" data-name="Layer 1" xmlns="http://www.w3.org/2000/svg" xmlns:xlink="http://www.w3.org/1999/xlink" viewBox="0 0 175.93 51.2"><defs><style>.cls-1{fill:none;}.cls-2{fill:#373737;}.cls-3{clip-path:url(#clip-path);}.cls-4{fill:#5ebf83;}.cls-5{fill:#231f20;}.cls-6{fill:#b2dcbf;}.cls-7{fill:#757779;}</style><clipPath id="clip-path"><rect class="cls-1" width="189.69" height="51.2"/></clipPath></defs><title>legend</title><path class="cls-2" d="M30,10.61a3.36,3.36,0,0,1-.19,1.18,2.58,2.58,0,0,1-.55.89,2.37,2.37,0,0,1-.86.56,3,3,0,0,1-1.1.2H25.24V7.78H27.3a3,3,0,0,1,1.1.2,2.37,2.37,0,0,1,.86.56,2.68,2.68,0,0,1,.55.89A3.36,3.36,0,0,1,30,10.61Zm-.42,0a3.15,3.15,0,0,0-.16-1.06A2.17,2.17,0,0,0,29,8.77a1.89,1.89,0,0,0-.72-.49,2.52,2.52,0,0,0-.93-.17H25.65v5H27.3a2.52,2.52,0,0,0,.93-.17,1.89,1.89,0,0,0,.72-.49,2.17,2.17,0,0,0,.47-.78A3.15,3.15,0,0,0,29.58,10.61Z"/><path class="cls-2" d="M31.22,11.29v.08a2.71,2.71,0,0,0,.1.79,1.72,1.72,0,0,0,.3.57,1.2,1.2,0,0,0,.46.34,1.48,1.48,0,0,0,.61.12,1.64,1.64,0,0,0,.52-.07,1.58,1.58,0,0,0,.37-.15l.24-.14a.22.22,0,0,1,.12-.07s.07,0,.08,0l.11.13a1.16,1.16,0,0,1-.26.22,1.64,1.64,0,0,1-.35.18,2.77,2.77,0,0,1-.41.12,2.28,2.28,0,0,1-.45,0,2,2,0,0,1-.74-.14,1.5,1.5,0,0,1-.58-.41,2.07,2.07,0,0,1-.37-.67,2.75,2.75,0,0,1-.13-.9,2.47,2.47,0,0,1,.12-.79,1.93,1.93,0,0,1,.35-.63,1.81,1.81,0,0,1,.57-.41,2,2,0,0,1,.76-.14,1.8,1.8,0,0,1,.62.11,1.43,1.43,0,0,1,.5.34,1.58,1.58,0,0,1,.33.55,1.88,1.88,0,0,1,.13.74.17.17,0,0,1,0,.12s0,0-.08,0Zm2.65-.24a1.72,1.72,0,0,0-.09-.58,1.22,1.22,0,0,0-.25-.43,1.37,1.37,0,0,0-1.44-.26,1.09,1.09,0,0,0-.42.27,1.42,1.42,0,0,0-.29.43,2,2,0,0,0-.14.57Z"/><path class="cls-2" d="M35.62,10.16a2.23,2.23,0,0,1,.63-.56,1.7,1.7,0,0,1,.81-.2,1.5,1.5,0,0,1,.58.1,1.12,1.12,0,0,1,.41.3,1.41,1.41,0,0,1,.25.47,2,2,0,0,1,.08.63v2.54H38V10.9a1.36,1.36,0,0,0-.26-.88A1,1,0,0,0,37,9.7a1.42,1.42,0,0,0-.72.2,1.84,1.84,0,0,0-.6.55v3h-.39v-4h.21a.11.11,0,0,1,.12.1Z"/><path class="cls-2" d="M41.84,10a.1.1,0,0,1-.09.06.21.21,0,0,1-.11,0,1.06,1.06,0,0,0-.19-.11,1.24,1.24,0,0,0-.28-.12,1.58,1.58,0,0,0-.41-.05,1,1,0,0,0-.39.07.86.86,0,0,0-.3.16.76.76,0,0,0-.2.24.77.77,0,0,0-.07.29.55.55,0,0,0,.1.32.87.87,0,0,0,.25.21,1.6,1.6,0,0,0,.35.15l.41.13.41.14a1.66,1.66,0,0,1,.35.19,1,1,0,0,1,.25.29.86.86,0,0,1,.1.41,1.29,1.29,0,0,1-.1.48,1.05,1.05,0,0,1-.27.39,1.3,1.3,0,0,1-.43.26,1.89,1.89,0,0,1-.6.09,1.75,1.75,0,0,1-.72-.13,2.06,2.06,0,0,1-.55-.35l.09-.14a.1.1,0,0,1,.05,0l.07,0a.22.22,0,0,1,.12.06,1.15,1.15,0,0,0,.2.14,1.29,1.29,0,0,0,.31.14,1.44,1.44,0,0,0,.45.06,1.23,1.23,0,0,0,.44-.07A.85.85,0,0,0,41.4,13a.77.77,0,0,0,.19-.28.8.8,0,0,0,.07-.34.52.52,0,0,0-.1-.33.8.8,0,0,0-.25-.23,1.6,1.6,0,0,0-.35-.15l-.41-.13-.4-.14a1.37,1.37,0,0,1-.36-.19,1,1,0,0,1-.25-.28.9.9,0,0,1-.1-.42.86.86,0,0,1,.1-.41.94.94,0,0,1,.26-.34,1.27,1.27,0,0,1,.41-.24,2,2,0,0,1,1.2,0,1.62,1.62,0,0,1,.51.32Z"/><path class="cls-2" d="M43.19,11.29v.08a2.71,2.71,0,0,0,.1.79,1.72,1.72,0,0,0,.3.57,1.28,1.28,0,0,0,.46.34,1.51,1.51,0,0,0,.61.12,1.64,1.64,0,0,0,.52-.07,1.42,1.42,0,0,0,.37-.15l.24-.14a.23.23,0,0,1,.13-.07.09.09,0,0,1,.08,0l.1.13a1.09,1.09,0,0,1-.25.22,2,2,0,0,1-.36.18,2.45,2.45,0,0,1-.41.12,2.28,2.28,0,0,1-.45,0,2,2,0,0,1-.74-.14,1.5,1.5,0,0,1-.58-.41,2.07,2.07,0,0,1-.37-.67,2.75,2.75,0,0,1-.13-.9,2.47,2.47,0,0,1,.12-.79,1.79,1.79,0,0,1,.36-.63,1.66,1.66,0,0,1,.56-.41,2,2,0,0,1,.76-.14,1.8,1.8,0,0,1,.62.11,1.43,1.43,0,0,1,.5.34,1.77,1.77,0,0,1,.34.55,2.09,2.09,0,0,1,.12.74.17.17,0,0,1,0,.12s0,0-.08,0Zm2.65-.24a1.72,1.72,0,0,0-.09-.58A1.22,1.22,0,0,0,45.5,10a1.16,1.16,0,0,0-.89-.36,1.38,1.38,0,0,0-.55.1,1.17,1.17,0,0,0-.42.27,1.42,1.42,0,0,0-.29.43,2,2,0,0,0-.14.57Z"/><path class="cls-2" d="M28.25,17.46l-1.68,4h-.33l-1.68-4h.3a.16.16,0,0,1,.09,0,.18.18,0,0,1,.05.07l1.31,3.14c0,.11.07.23.1.34a2.19,2.19,0,0,1,.1-.34l1.32-3.14a.13.13,0,0,1,.05-.07.11.11,0,0,1,.08,0Zm.86,1.83v.08a2.71,2.71,0,0,0,.1.79,1.72,1.72,0,0,0,.3.57,1.28,1.28,0,0,0,.46.34,1.51,1.51,0,0,0,.61.12,1.64,1.64,0,0,0,.52-.07,1.42,1.42,0,0,0,.37-.15l.24-.14a.23.23,0,0,1,.13-.07.09.09,0,0,1,.08,0l.1.13a1.09,1.09,0,0,1-.25.22,2,2,0,0,1-.36.18,2.45,2.45,0,0,1-.41.12,2.28,2.28,0,0,1-.45,0,2,2,0,0,1-.74-.14,1.5,1.5,0,0,1-.58-.41,2.07,2.07,0,0,1-.37-.67,3,3,0,0,1-.13-.9,2.47,2.47,0,0,1,.12-.79,2,2,0,0,1,.36-.63,1.66,1.66,0,0,1,.56-.41,2,2,0,0,1,.76-.14,1.59,1.59,0,0,1,.62.11,1.43,1.43,0,0,1,.5.34,1.77,1.77,0,0,1,.34.55,2.09,2.09,0,0,1,.12.74.17.17,0,0,1,0,.12s0,0-.08,0Zm2.65-.24a1.72,1.72,0,0,0-.09-.58,1.22,1.22,0,0,0-.25-.43,1.16,1.16,0,0,0-.89-.36,1.38,1.38,0,0,0-.55.1,1.17,1.17,0,0,0-.42.27,1.42,1.42,0,0,0-.29.43,2,2,0,0,0-.14.57Zm4.58-1.41v.13c0,.06,0,.09-.11.11l-.61,0a1,1,0,0,1,.18.34,1.35,1.35,0,0,1,.06.41,1.27,1.27,0,0,1-.11.52,1,1,0,0,1-.28.4,1.43,1.43,0,0,1-.45.26,1.81,1.81,0,0,1-.58.09,1.75,1.75,0,0,1-.62-.1,1,1,0,0,0-.27.22.45.45,0,0,0-.09.26.31.31,0,0,0,.12.26.73.73,0,0,0,.32.14,2.81,2.81,0,0,0,.45.05l.52,0a4.57,4.57,0,0,1,.52.05,1.48,1.48,0,0,1,.45.12.82.82,0,0,1,.32.26.69.69,0,0,1,.12.43,1,1,0,0,1-.12.47,1.54,1.54,0,0,1-.36.41,2.16,2.16,0,0,1-.57.28,2.45,2.45,0,0,1-.74.1,2.75,2.75,0,0,1-.74-.08,2,2,0,0,1-.53-.23,1,1,0,0,1-.32-.34.87.87,0,0,1-.11-.41.76.76,0,0,1,.21-.54,1.47,1.47,0,0,1,.57-.36.72.72,0,0,1-.32-.19.48.48,0,0,1-.13-.36.38.38,0,0,1,0-.17.66.66,0,0,1,.09-.19,1.25,1.25,0,0,1,.16-.17,1.1,1.1,0,0,1,.21-.14,1.19,1.19,0,0,1-.45-.44,1.28,1.28,0,0,1-.15-.63,1.24,1.24,0,0,1,.1-.52,1.18,1.18,0,0,1,.29-.41,1.4,1.4,0,0,1,.45-.26,1.76,1.76,0,0,1,.58-.09,1.53,1.53,0,0,1,.49.07,1.27,1.27,0,0,1,.39.18Zm-.41,4.07a.4.4,0,0,0-.1-.3.61.61,0,0,0-.26-.18,1.93,1.93,0,0,0-.38-.09l-.45,0-.47,0-.44,0a1.22,1.22,0,0,0-.28.14,1,1,0,0,0-.22.17,1.07,1.07,0,0,0-.15.22.75.75,0,0,0,0,.26.62.62,0,0,0,.09.32.75.75,0,0,0,.27.26,1.36,1.36,0,0,0,.42.18,2.52,2.52,0,0,0,.58.06,2.12,2.12,0,0,0,.57-.07,1.53,1.53,0,0,0,.45-.19,1,1,0,0,0,.31-.3A.7.7,0,0,0,35.93,21.71Zm-1.49-2a1.35,1.35,0,0,0,.46-.07.93.93,0,0,0,.33-.21.89.89,0,0,0,.21-.32,1,1,0,0,0,.07-.4,1.07,1.07,0,0,0-.07-.41.89.89,0,0,0-.21-.32,1.08,1.08,0,0,0-.34-.21,1.48,1.48,0,0,0-.9,0,1.08,1.08,0,0,0-.34.21.89.89,0,0,0-.21.32,1.3,1.3,0,0,0-.07.41,1.24,1.24,0,0,0,.07.4.89.89,0,0,0,.21.32,1.08,1.08,0,0,0,.34.21A1.25,1.25,0,0,0,34.44,19.68Zm2.87-.39v.08a2.69,2.69,0,0,0,.11.79,1.7,1.7,0,0,0,.29.57,1.24,1.24,0,0,0,.47.34,1.46,1.46,0,0,0,.6.12,1.6,1.6,0,0,0,.52-.07,1.42,1.42,0,0,0,.37-.15l.24-.14a.23.23,0,0,1,.13-.07.09.09,0,0,1,.08,0l.1.13a.92.92,0,0,1-.25.22,1.92,1.92,0,0,1-.35.18,2.58,2.58,0,0,1-.42.12,2.18,2.18,0,0,1-.44,0,2,2,0,0,1-.75-.14,1.54,1.54,0,0,1-.57-.41,1.9,1.9,0,0,1-.37-.67,2.75,2.75,0,0,1-.13-.9,2.47,2.47,0,0,1,.12-.79,1.93,1.93,0,0,1,.35-.63,1.66,1.66,0,0,1,.56-.41,2.06,2.06,0,0,1,.76-.14,1.64,1.64,0,0,1,.63.11,1.53,1.53,0,0,1,.5.34,1.58,1.58,0,0,1,.33.55,2.09,2.09,0,0,1,.12.74.29.29,0,0,1,0,.12.1.1,0,0,1-.08,0ZM40,19.05a1.72,1.72,0,0,0-.09-.58,1.24,1.24,0,0,0-.26-.43,1.36,1.36,0,0,0-.39-.27,1.3,1.3,0,0,0-.49-.09,1.43,1.43,0,0,0-.56.1,1.17,1.17,0,0,0-.42.27,1.39,1.39,0,0,0-.28.43,2,2,0,0,0-.15.57Zm2.45,2.45a.85.85,0,0,1-.63-.22.94.94,0,0,1-.22-.69V17.87H41a.11.11,0,0,1-.08,0,.08.08,0,0,1,0-.06v-.15l.68-.05.09-1.42,0-.07a.09.09,0,0,1,.07,0H42v1.52h1.26v.29H42v2.7a1.11,1.11,0,0,0,0,.28.52.52,0,0,0,.12.19.66.66,0,0,0,.17.12.78.78,0,0,0,.22,0,.62.62,0,0,0,.25,0l.18-.09.12-.09a.15.15,0,0,1,.08,0s0,0,.06,0l.11.17a1.23,1.23,0,0,1-.39.27A1.19,1.19,0,0,1,42.42,21.5ZM44,18a2.59,2.59,0,0,1,.66-.47,1.94,1.94,0,0,1,.78-.16,1.6,1.6,0,0,1,.56.1,1,1,0,0,1,.39.3,1.12,1.12,0,0,1,.24.46,1.9,1.9,0,0,1,.08.6v2.59h-.15a.14.14,0,0,1-.15-.11l0-.51a4.09,4.09,0,0,1-.33.28,1.79,1.79,0,0,1-.34.22,2.13,2.13,0,0,1-.38.14,2,2,0,0,1-.45,0,1.32,1.32,0,0,1-.39-.06,1,1,0,0,1-.34-.18.87.87,0,0,1-.24-.32,1.08,1.08,0,0,1-.09-.46A.79.79,0,0,1,43.9,20a1.23,1.23,0,0,1,.45-.38,3.2,3.2,0,0,1,.79-.25,6.18,6.18,0,0,1,1.16-.12v-.41a1.32,1.32,0,0,0-.24-.85.84.84,0,0,0-.7-.3,1.36,1.36,0,0,0-.49.08,1.43,1.43,0,0,0-.35.18,1.54,1.54,0,0,0-.22.17.22.22,0,0,1-.15.08s-.06,0-.07,0a.12.12,0,0,1,0-.05Zm2.34,1.5a6.57,6.57,0,0,0-1,.09,2.45,2.45,0,0,0-.67.19,1,1,0,0,0-.4.28.65.65,0,0,0-.13.38,1,1,0,0,0,.07.35.69.69,0,0,0,.18.24.66.66,0,0,0,.25.13,1,1,0,0,0,.3.05,2,2,0,0,0,.43-.05,1.92,1.92,0,0,0,.36-.14,1.6,1.6,0,0,0,.31-.22l.28-.26Zm4.91,1.92h-.39V17.87h-2.3v2.7a.79.79,0,0,0,0,.28.52.52,0,0,0,.12.19.66.66,0,0,0,.17.12.78.78,0,0,0,.22,0,.66.66,0,0,0,.25,0l.18-.09.12-.09a.15.15,0,0,1,.08,0s0,0,.06,0l.1.17a1.17,1.17,0,0,1-.87.37.85.85,0,0,1-.63-.22.94.94,0,0,1-.22-.69V17.87h-.58a.09.09,0,0,1-.07,0,.06.06,0,0,1,0-.06v-.15l.68-.05.1-1.42,0-.07a.09.09,0,0,1,.07,0h.18v1.52h2.69Zm.17-5.4a.28.28,0,0,1,0,.13.23.23,0,0,1-.08.11.28.28,0,0,1-.11.08.32.32,0,0,1-.14,0,.31.31,0,0,1-.13,0,.28.28,0,0,1-.11-.08.23.23,0,0,1-.08-.11.28.28,0,0,1,0-.13.35.35,0,0,1,0-.14.28.28,0,0,1,.08-.11l.11-.08a.31.31,0,0,1,.13,0,.32.32,0,0,1,.14,0l.11.08a.28.28,0,0,1,.08.11A.35.35,0,0,1,51.38,16Zm2.76,1.36a1.84,1.84,0,0,1,.76.14,1.51,1.51,0,0,1,.57.42,1.81,1.81,0,0,1,.36.64,2.82,2.82,0,0,1,.12.85,2.75,2.75,0,0,1-.12.84,2,2,0,0,1-.36.65,1.61,1.61,0,0,1-.57.41,2,2,0,0,1-.76.14,2.07,2.07,0,0,1-.77-.14,1.61,1.61,0,0,1-.57-.41,1.79,1.79,0,0,1-.36-.65,2.75,2.75,0,0,1-.12-.84,2.82,2.82,0,0,1,.12-.85A1.67,1.67,0,0,1,52.8,18a1.51,1.51,0,0,1,.57-.42A1.89,1.89,0,0,1,54.14,17.4Zm0,3.79a1.52,1.52,0,0,0,.62-.12,1.16,1.16,0,0,0,.44-.35,1.57,1.57,0,0,0,.27-.55,2.68,2.68,0,0,0,.09-.72,2.63,2.63,0,0,0-.09-.72,1.62,1.62,0,0,0-.27-.56,1.16,1.16,0,0,0-.44-.35,1.52,1.52,0,0,0-.62-.12,1.54,1.54,0,0,0-.63.12,1.24,1.24,0,0,0-.44.35,1.62,1.62,0,0,0-.27.56,2.63,2.63,0,0,0-.09.72,2.68,2.68,0,0,0,.09.72,1.57,1.57,0,0,0,.27.55,1.24,1.24,0,0,0,.44.35A1.54,1.54,0,0,0,54.14,21.19Zm3.25-3A2.14,2.14,0,0,1,58,17.6a1.67,1.67,0,0,1,.8-.2,1.5,1.5,0,0,1,.58.1,1,1,0,0,1,.41.3,1.25,1.25,0,0,1,.25.47,2,2,0,0,1,.09.63v2.54h-.39V18.9a1.36,1.36,0,0,0-.25-.88,1,1,0,0,0-.78-.32,1.46,1.46,0,0,0-.73.2,1.84,1.84,0,0,0-.6.55v3H57v-4h.22a.1.1,0,0,1,.11.1Z"/><path class="cls-2" d="M30.83,31.78v5.66h-.36V32.62c0-.07,0-.15,0-.22l-2.22,4a.18.18,0,0,1-.16.11H28a.18.18,0,0,1-.16-.11l-2.29-4a1.79,1.79,0,0,1,0,.23v4.82h-.36V31.78h.37a.14.14,0,0,1,.06.07L28,35.79a2.44,2.44,0,0,1,.1.24l.05-.12.06-.12,2.22-3.93a.15.15,0,0,1,.07-.07h.37Z"/><path class="cls-2" d="M33.78,33.4a1.84,1.84,0,0,1,.76.14,1.51,1.51,0,0,1,.57.42,1.81,1.81,0,0,1,.36.64,2.82,2.82,0,0,1,.12.85,2.75,2.75,0,0,1-.12.84,2,2,0,0,1-.36.65,1.61,1.61,0,0,1-.57.41,2,2,0,0,1-.76.14,2.07,2.07,0,0,1-.77-.14,1.61,1.61,0,0,1-.57-.41,1.79,1.79,0,0,1-.36-.65,2.75,2.75,0,0,1-.12-.84,2.82,2.82,0,0,1,.12-.85,1.67,1.67,0,0,1,.36-.64,1.51,1.51,0,0,1,.57-.42A1.89,1.89,0,0,1,33.78,33.4Zm0,3.79a1.52,1.52,0,0,0,.62-.12,1.16,1.16,0,0,0,.44-.35,1.57,1.57,0,0,0,.27-.55,2.68,2.68,0,0,0,.09-.72,2.63,2.63,0,0,0-.09-.72,1.62,1.62,0,0,0-.27-.56,1.16,1.16,0,0,0-.44-.35,1.52,1.52,0,0,0-.62-.12,1.54,1.54,0,0,0-.63.12,1.24,1.24,0,0,0-.44.35,1.62,1.62,0,0,0-.27.56,2.63,2.63,0,0,0-.09.72,2.68,2.68,0,0,0,.09.72,1.57,1.57,0,0,0,.27.55,1.24,1.24,0,0,0,.44.35A1.54,1.54,0,0,0,33.78,37.19Z"/><path class="cls-2" d="M39.76,31.62v5.82h-.21a.11.11,0,0,1-.12-.1l0-.63a2.06,2.06,0,0,1-.61.57,1.54,1.54,0,0,1-.8.21A1.37,1.37,0,0,1,36.84,37a2.38,2.38,0,0,1-.41-1.52,2.64,2.64,0,0,1,.12-.81,1.78,1.78,0,0,1,.33-.66,1.64,1.64,0,0,1,.54-.44,1.75,1.75,0,0,1,.74-.16,1.51,1.51,0,0,1,.7.15,1.55,1.55,0,0,1,.52.44V31.62Zm-.38,2.7a1.25,1.25,0,0,0-1.14-.63,1.35,1.35,0,0,0-.62.13,1.39,1.39,0,0,0-.44.36,1.62,1.62,0,0,0-.27.56,2.73,2.73,0,0,0-.09.72,2.12,2.12,0,0,0,.33,1.31,1.14,1.14,0,0,0,.94.41,1.31,1.31,0,0,0,.72-.2,2.2,2.2,0,0,0,.57-.57Z"/><path class="cls-2" d="M41.21,35.29v.08a2.71,2.71,0,0,0,.1.79,1.72,1.72,0,0,0,.3.57,1.28,1.28,0,0,0,.46.34,1.51,1.51,0,0,0,.61.12,1.64,1.64,0,0,0,.52-.07,1.42,1.42,0,0,0,.37-.15l.24-.14a.23.23,0,0,1,.13-.07.09.09,0,0,1,.08,0l.1.13a1.09,1.09,0,0,1-.25.22,2,2,0,0,1-.36.18,2.45,2.45,0,0,1-.41.12,2.28,2.28,0,0,1-.45,0,2,2,0,0,1-.74-.14,1.5,1.5,0,0,1-.58-.41,2.07,2.07,0,0,1-.37-.67,2.75,2.75,0,0,1-.13-.9,2.47,2.47,0,0,1,.12-.79,1.79,1.79,0,0,1,.36-.63,1.66,1.66,0,0,1,.56-.41,2,2,0,0,1,.76-.14,1.8,1.8,0,0,1,.62.11,1.43,1.43,0,0,1,.5.34,1.77,1.77,0,0,1,.34.55,2.09,2.09,0,0,1,.12.74.17.17,0,0,1,0,.12s0,0-.08,0Zm2.65-.24a1.72,1.72,0,0,0-.09-.58,1.22,1.22,0,0,0-.25-.43,1.16,1.16,0,0,0-.89-.36,1.38,1.38,0,0,0-.55.1,1.17,1.17,0,0,0-.42.27,1.42,1.42,0,0,0-.29.43,2,2,0,0,0-.14.57Z"/><path class="cls-2" d="M45.61,34.42a2.15,2.15,0,0,1,.21-.43,1.49,1.49,0,0,1,.27-.33,1.13,1.13,0,0,1,.77-.27l.24,0a.66.66,0,0,1,.21.08l0,.27a.08.08,0,0,1-.08.06l-.14,0a.93.93,0,0,0-.26,0,1.25,1.25,0,0,0-.41.07,1,1,0,0,0-.32.21,1.57,1.57,0,0,0-.25.35,4.17,4.17,0,0,0-.19.47v2.58h-.39v-4h.21s.08,0,.09,0a.19.19,0,0,1,0,.09Z"/><path class="cls-2" d="M47.89,34a2.55,2.55,0,0,1,.65-.47,1.94,1.94,0,0,1,.78-.16,1.56,1.56,0,0,1,.56.1,1,1,0,0,1,.4.3,1.12,1.12,0,0,1,.24.46,2.23,2.23,0,0,1,.08.6v2.59h-.15a.14.14,0,0,1-.15-.11l-.06-.51a4,4,0,0,1-.32.28,1.79,1.79,0,0,1-.34.22,1.63,1.63,0,0,1-.83.18,1.27,1.27,0,0,1-.39-.06,1.06,1.06,0,0,1-.35-.18.87.87,0,0,1-.24-.32,1.08,1.08,0,0,1-.09-.46.8.8,0,0,1,.15-.47,1.08,1.08,0,0,1,.45-.38,2.72,2.72,0,0,1,.79-.25,6.18,6.18,0,0,1,1.16-.12v-.41A1.32,1.32,0,0,0,50,34a.85.85,0,0,0-.71-.3,1.44,1.44,0,0,0-.49.08,1.36,1.36,0,0,0-.34.18l-.23.17a.19.19,0,0,1-.14.08.11.11,0,0,1-.08,0,.1.1,0,0,1,0,0Zm2.34,1.5a6.44,6.44,0,0,0-1,.09,2.64,2.64,0,0,0-.68.19,1.09,1.09,0,0,0-.39.28.58.58,0,0,0-.13.38.78.78,0,0,0,.07.35.81.81,0,0,0,.17.24.79.79,0,0,0,.26.13.94.94,0,0,0,.3,0,1.86,1.86,0,0,0,.42,0,1.42,1.42,0,0,0,.36-.14,1.34,1.34,0,0,0,.31-.22l.29-.26Z"/><path class="cls-2" d="M52.92,37.5a.85.85,0,0,1-.63-.22.94.94,0,0,1-.23-.69V33.87h-.57a.09.09,0,0,1-.07,0,.06.06,0,0,1,0-.06v-.15l.68-.05.1-1.42a.1.1,0,0,1,.1-.1h.18v1.52H53.7v.29H52.45v2.7a.79.79,0,0,0,0,.28.52.52,0,0,0,.12.19.52.52,0,0,0,.17.12.78.78,0,0,0,.22,0,.61.61,0,0,0,.24,0l.18-.09.13-.09s.05,0,.07,0a.13.13,0,0,1,.07,0l.1.17a1.17,1.17,0,0,1-.87.37Z"/><path class="cls-2" d="M54.7,35.29v.08a2.71,2.71,0,0,0,.1.79,1.72,1.72,0,0,0,.3.57,1.28,1.28,0,0,0,.46.34,1.54,1.54,0,0,0,.61.12,1.64,1.64,0,0,0,.52-.07,1.42,1.42,0,0,0,.37-.15l.24-.14a.23.23,0,0,1,.13-.07.09.09,0,0,1,.08,0l.1.13a1.09,1.09,0,0,1-.25.22,1.92,1.92,0,0,1-.35.18,2.58,2.58,0,0,1-.42.12,2.28,2.28,0,0,1-.45,0,2,2,0,0,1-.74-.14,1.58,1.58,0,0,1-.58-.41,2.07,2.07,0,0,1-.37-.67,3,3,0,0,1-.13-.9,2.22,2.22,0,0,1,.13-.79A1.77,1.77,0,0,1,54.8,34a1.66,1.66,0,0,1,.56-.41,2,2,0,0,1,.76-.14,1.8,1.8,0,0,1,.62.11,1.35,1.35,0,0,1,.5.34,1.46,1.46,0,0,1,.34.55,2.09,2.09,0,0,1,.12.74.29.29,0,0,1,0,.12.11.11,0,0,1-.08,0Zm2.66-.24a1.72,1.72,0,0,0-.09-.58A1.24,1.24,0,0,0,57,34a1.36,1.36,0,0,0-.39-.27,1.31,1.31,0,0,0-.5-.09,1.38,1.38,0,0,0-.55.1,1.17,1.17,0,0,0-.42.27,1.62,1.62,0,0,0-.29.43,2,2,0,0,0-.14.57Z"/><path class="cls-2" d="M28.25,41.46l-1.68,4h-.33l-1.68-4h.3a.16.16,0,0,1,.09,0,.18.18,0,0,1,.05.07l1.31,3.14c0,.11.07.23.1.34a2.19,2.19,0,0,1,.1-.34l1.32-3.14a.13.13,0,0,1,.05-.07.11.11,0,0,1,.08,0Zm.86,1.83v.08a2.71,2.71,0,0,0,.1.79,1.72,1.72,0,0,0,.3.57,1.28,1.28,0,0,0,.46.34,1.51,1.51,0,0,0,.61.12,1.64,1.64,0,0,0,.52-.07,1.42,1.42,0,0,0,.37-.15l.24-.14a.23.23,0,0,1,.13-.07.09.09,0,0,1,.08,0l.1.13a1.09,1.09,0,0,1-.25.22,2,2,0,0,1-.36.18,2.45,2.45,0,0,1-.41.12,2.28,2.28,0,0,1-.45,0,2,2,0,0,1-.74-.14,1.5,1.5,0,0,1-.58-.41,2.07,2.07,0,0,1-.37-.67,3,3,0,0,1-.13-.9,2.47,2.47,0,0,1,.12-.79,2,2,0,0,1,.36-.63,1.66,1.66,0,0,1,.56-.41,2,2,0,0,1,.76-.14,1.59,1.59,0,0,1,.62.11,1.43,1.43,0,0,1,.5.34,1.77,1.77,0,0,1,.34.55,2.09,2.09,0,0,1,.12.74.17.17,0,0,1,0,.12s0,0-.08,0Zm2.65-.24a1.72,1.72,0,0,0-.09-.58,1.22,1.22,0,0,0-.25-.43,1.16,1.16,0,0,0-.89-.36,1.38,1.38,0,0,0-.55.1,1.17,1.17,0,0,0-.42.27,1.42,1.42,0,0,0-.29.43,2,2,0,0,0-.14.57Zm4.58-1.41v.13c0,.06,0,.09-.11.11l-.61,0a1,1,0,0,1,.18.34,1.35,1.35,0,0,1,.06.41,1.27,1.27,0,0,1-.11.52,1,1,0,0,1-.28.4,1.43,1.43,0,0,1-.45.26,1.81,1.81,0,0,1-.58.09,1.75,1.75,0,0,1-.62-.1,1,1,0,0,0-.27.22.45.45,0,0,0-.09.26.31.31,0,0,0,.12.26.73.73,0,0,0,.32.14,2.81,2.81,0,0,0,.45.05l.52,0a4.57,4.57,0,0,1,.52.05,1.48,1.48,0,0,1,.45.12.82.82,0,0,1,.32.26.69.69,0,0,1,.12.43,1,1,0,0,1-.12.47,1.54,1.54,0,0,1-.36.41,2.16,2.16,0,0,1-.57.28,2.45,2.45,0,0,1-.74.1,2.75,2.75,0,0,1-.74-.08,2,2,0,0,1-.53-.23,1,1,0,0,1-.32-.34.87.87,0,0,1-.11-.41.76.76,0,0,1,.21-.54,1.47,1.47,0,0,1,.57-.36.72.72,0,0,1-.32-.19.48.48,0,0,1-.13-.36.38.38,0,0,1,0-.17.66.66,0,0,1,.09-.19,1.25,1.25,0,0,1,.16-.17,1.1,1.1,0,0,1,.21-.14,1.19,1.19,0,0,1-.45-.44,1.28,1.28,0,0,1-.15-.63,1.24,1.24,0,0,1,.1-.52,1.18,1.18,0,0,1,.29-.41,1.4,1.4,0,0,1,.45-.26,1.76,1.76,0,0,1,.58-.09,1.53,1.53,0,0,1,.49.07,1.27,1.27,0,0,1,.39.18Zm-.41,4.07a.4.4,0,0,0-.1-.3.61.61,0,0,0-.26-.18,1.93,1.93,0,0,0-.38-.09l-.45,0-.47,0-.44,0a1.22,1.22,0,0,0-.28.14,1,1,0,0,0-.22.17,1.07,1.07,0,0,0-.15.22.75.75,0,0,0,0,.26.62.62,0,0,0,.09.32.75.75,0,0,0,.27.26,1.36,1.36,0,0,0,.42.18,2.52,2.52,0,0,0,.58.06,2.12,2.12,0,0,0,.57-.07,1.53,1.53,0,0,0,.45-.19,1,1,0,0,0,.31-.3A.7.7,0,0,0,35.93,45.71Zm-1.49-2a1.35,1.35,0,0,0,.46-.07.93.93,0,0,0,.33-.21.89.89,0,0,0,.21-.32,1,1,0,0,0,.07-.4,1.07,1.07,0,0,0-.07-.41.89.89,0,0,0-.21-.32,1.08,1.08,0,0,0-.34-.21,1.48,1.48,0,0,0-.9,0,1.08,1.08,0,0,0-.34.21.89.89,0,0,0-.21.32,1.3,1.3,0,0,0-.07.41,1.24,1.24,0,0,0,.07.4.89.89,0,0,0,.21.32,1.08,1.08,0,0,0,.34.21A1.25,1.25,0,0,0,34.44,43.68Zm2.87-.39v.08a2.69,2.69,0,0,0,.11.79,1.7,1.7,0,0,0,.29.57,1.24,1.24,0,0,0,.47.34,1.46,1.46,0,0,0,.6.12,1.6,1.6,0,0,0,.52-.07,1.42,1.42,0,0,0,.37-.15l.24-.14a.23.23,0,0,1,.13-.07.09.09,0,0,1,.08,0l.1.13a.92.92,0,0,1-.25.22,1.92,1.92,0,0,1-.35.18,2.58,2.58,0,0,1-.42.12,2.18,2.18,0,0,1-.44,0,2,2,0,0,1-.75-.14,1.54,1.54,0,0,1-.57-.41,1.9,1.9,0,0,1-.37-.67,2.75,2.75,0,0,1-.13-.9,2.47,2.47,0,0,1,.12-.79,1.93,1.93,0,0,1,.35-.63,1.66,1.66,0,0,1,.56-.41,2.06,2.06,0,0,1,.76-.14,1.64,1.64,0,0,1,.63.11,1.53,1.53,0,0,1,.5.34,1.58,1.58,0,0,1,.33.55,2.09,2.09,0,0,1,.12.74.29.29,0,0,1,0,.12.1.1,0,0,1-.08,0ZM40,43.05a1.72,1.72,0,0,0-.09-.58,1.24,1.24,0,0,0-.26-.43,1.36,1.36,0,0,0-.39-.27,1.3,1.3,0,0,0-.49-.09,1.43,1.43,0,0,0-.56.1,1.17,1.17,0,0,0-.42.27,1.39,1.39,0,0,0-.28.43,2,2,0,0,0-.15.57Zm2.45,2.45a.85.85,0,0,1-.63-.22.94.94,0,0,1-.22-.69V41.87H41a.11.11,0,0,1-.08,0,.08.08,0,0,1,0-.06v-.15l.68-.05.09-1.42,0-.07a.09.09,0,0,1,.07,0H42v1.52h1.26v.29H42v2.7a1.11,1.11,0,0,0,0,.28.52.52,0,0,0,.12.19.66.66,0,0,0,.17.12.78.78,0,0,0,.22,0,.62.62,0,0,0,.25,0l.18-.09.12-.09a.15.15,0,0,1,.08,0s0,0,.06,0l.11.17a1.23,1.23,0,0,1-.39.27A1.19,1.19,0,0,1,42.42,45.5ZM44,42a2.59,2.59,0,0,1,.66-.47,1.94,1.94,0,0,1,.78-.16,1.6,1.6,0,0,1,.56.1,1,1,0,0,1,.39.3,1.12,1.12,0,0,1,.24.46,1.9,1.9,0,0,1,.08.6v2.59h-.15a.14.14,0,0,1-.15-.11l0-.51a4.09,4.09,0,0,1-.33.28,1.79,1.79,0,0,1-.34.22,2.13,2.13,0,0,1-.38.14,2,2,0,0,1-.45,0,1.32,1.32,0,0,1-.39-.06,1,1,0,0,1-.34-.18.87.87,0,0,1-.24-.32,1.08,1.08,0,0,1-.09-.46A.79.79,0,0,1,43.9,44a1.23,1.23,0,0,1,.45-.38,3.2,3.2,0,0,1,.79-.25,6.18,6.18,0,0,1,1.16-.12v-.41a1.32,1.32,0,0,0-.24-.85.84.84,0,0,0-.7-.3,1.36,1.36,0,0,0-.49.08,1.43,1.43,0,0,0-.35.18,1.54,1.54,0,0,0-.22.17.22.22,0,0,1-.15.08s-.06,0-.07,0l0,0Zm2.34,1.5a6.57,6.57,0,0,0-1,.09,2.45,2.45,0,0,0-.67.19,1,1,0,0,0-.4.28.65.65,0,0,0-.13.38,1,1,0,0,0,.07.35.69.69,0,0,0,.18.24.66.66,0,0,0,.25.13,1,1,0,0,0,.3,0,2,2,0,0,0,.43,0,1.92,1.92,0,0,0,.36-.14,1.6,1.6,0,0,0,.31-.22l.28-.26Zm4.91,1.92h-.39V41.87h-2.3v2.7a.79.79,0,0,0,0,.28.52.52,0,0,0,.12.19.66.66,0,0,0,.17.12.78.78,0,0,0,.22,0,.66.66,0,0,0,.25,0l.18-.09.12-.09a.15.15,0,0,1,.08,0s0,0,.06,0l.1.17a1.17,1.17,0,0,1-.87.37.85.85,0,0,1-.63-.22.94.94,0,0,1-.22-.69V41.87h-.58a.09.09,0,0,1-.07,0,.06.06,0,0,1,0-.06v-.15l.68-.05.1-1.42,0-.07a.09.09,0,0,1,.07,0h.18v1.52h2.69Zm.17-5.4a.28.28,0,0,1,0,.13.23.23,0,0,1-.08.11.28.28,0,0,1-.11.08.32.32,0,0,1-.14,0,.31.31,0,0,1-.13,0,.28.28,0,0,1-.11-.08.23.23,0,0,1-.08-.11.28.28,0,0,1,0-.13.35.35,0,0,1,0-.14.28.28,0,0,1,.08-.11l.11-.08a.31.31,0,0,1,.13,0,.32.32,0,0,1,.14,0l.11.08a.28.28,0,0,1,.08.11A.35.35,0,0,1,51.38,40Zm2.76,1.36a1.84,1.84,0,0,1,.76.14,1.51,1.51,0,0,1,.57.42,1.81,1.81,0,0,1,.36.64,2.82,2.82,0,0,1,.12.85,2.75,2.75,0,0,1-.12.84,2,2,0,0,1-.36.65,1.61,1.61,0,0,1-.57.41,2,2,0,0,1-.76.14,2.07,2.07,0,0,1-.77-.14,1.61,1.61,0,0,1-.57-.41,1.79,1.79,0,0,1-.36-.65,2.75,2.75,0,0,1-.12-.84,2.82,2.82,0,0,1,.12-.85A1.67,1.67,0,0,1,52.8,42a1.51,1.51,0,0,1,.57-.42A1.89,1.89,0,0,1,54.14,41.4Zm0,3.79a1.52,1.52,0,0,0,.62-.12,1.16,1.16,0,0,0,.44-.35,1.57,1.57,0,0,0,.27-.55,2.68,2.68,0,0,0,.09-.72,2.63,2.63,0,0,0-.09-.72,1.62,1.62,0,0,0-.27-.56,1.16,1.16,0,0,0-.44-.35,1.52,1.52,0,0,0-.62-.12,1.54,1.54,0,0,0-.63.12,1.24,1.24,0,0,0-.44.35,1.62,1.62,0,0,0-.27.56,2.63,2.63,0,0,0-.09.72,2.68,2.68,0,0,0,.09.72,1.57,1.57,0,0,0,.27.55,1.24,1.24,0,0,0,.44.35A1.54,1.54,0,0,0,54.14,45.19Zm3.25-3A2.14,2.14,0,0,1,58,41.6a1.67,1.67,0,0,1,.8-.2,1.5,1.5,0,0,1,.58.1,1,1,0,0,1,.41.3,1.25,1.25,0,0,1,.25.47,2,2,0,0,1,.09.63v2.54h-.39V42.9a1.36,1.36,0,0,0-.25-.88,1,1,0,0,0-.78-.32,1.46,1.46,0,0,0-.73.2,1.84,1.84,0,0,0-.6.55v3H57v-4h.22a.1.1,0,0,1,.11.1Z"/><g class="cls-3"><path class="cls-4" d="M9,23.85a9,9,0,1,0-9-9,9,9,0,0,0,9,9"/><path class="cls-5" d="M98.74,23.85a9,9,0,1,0-9-9,9,9,0,0,0,9,9"/><path class="cls-6" d="M10,47.61a9,9,0,1,0-9-9,9,9,0,0,0,9,9"/><path class="cls-7" d="M99.74,47.61a9,9,0,1,0-9-9,9,9,0,0,0,9,9"/></g><path class="cls-2" d="M117,10.61a3.36,3.36,0,0,1-.2,1.18,2.44,2.44,0,0,1-.55.89,2.33,2.33,0,0,1-.85.56,3,3,0,0,1-1.1.2H112.2V7.78h2.07a3,3,0,0,1,1.1.2,2.33,2.33,0,0,1,.85.56,2.52,2.52,0,0,1,.55.89A3.36,3.36,0,0,1,117,10.61Zm-.43,0a3.15,3.15,0,0,0-.16-1.06,2.15,2.15,0,0,0-.46-.78,1.89,1.89,0,0,0-.72-.49,2.52,2.52,0,0,0-.93-.17h-1.66v5h1.66a2.52,2.52,0,0,0,.93-.17,1.89,1.89,0,0,0,.72-.49,2.15,2.15,0,0,0,.46-.78A3.15,3.15,0,0,0,116.54,10.61Z"/><path class="cls-2" d="M118.18,11.29v.08a2.71,2.71,0,0,0,.1.79,1.72,1.72,0,0,0,.3.57,1.28,1.28,0,0,0,.46.34,1.51,1.51,0,0,0,.61.12,1.64,1.64,0,0,0,.52-.07,1.42,1.42,0,0,0,.37-.15l.24-.14a.23.23,0,0,1,.13-.07.09.09,0,0,1,.08,0l.1.13a1.09,1.09,0,0,1-.25.22,2.31,2.31,0,0,1-.35.18,2.58,2.58,0,0,1-.42.12,2.28,2.28,0,0,1-.45,0,2,2,0,0,1-.74-.14,1.58,1.58,0,0,1-.58-.41,2.07,2.07,0,0,1-.37-.67,3,3,0,0,1-.13-.9,2.22,2.22,0,0,1,.13-.79,1.77,1.77,0,0,1,.35-.63,1.66,1.66,0,0,1,.56-.41,2,2,0,0,1,.76-.14,1.8,1.8,0,0,1,.62.11,1.35,1.35,0,0,1,.5.34,1.6,1.6,0,0,1,.34.55,2.09,2.09,0,0,1,.12.74.29.29,0,0,1,0,.12.11.11,0,0,1-.08,0Zm2.66-.24a1.72,1.72,0,0,0-.09-.58,1.24,1.24,0,0,0-.26-.43,1.16,1.16,0,0,0-.89-.36,1.38,1.38,0,0,0-.55.1,1.17,1.17,0,0,0-.42.27,1.62,1.62,0,0,0-.29.43,2,2,0,0,0-.14.57Z"/><path class="cls-2" d="M122.58,10.16a2.27,2.27,0,0,1,.64-.56,1.67,1.67,0,0,1,.8-.2,1.5,1.5,0,0,1,.58.1,1.08,1.08,0,0,1,.42.3,1.39,1.39,0,0,1,.24.47,2,2,0,0,1,.09.63v2.54H125V10.9a1.36,1.36,0,0,0-.25-.88,1,1,0,0,0-.78-.32,1.46,1.46,0,0,0-.73.2,1.94,1.94,0,0,0-.6.55v3h-.39v-4h.22a.1.1,0,0,1,.11.1Z"/><path class="cls-2" d="M128.8,10a.1.1,0,0,1-.09.06.21.21,0,0,1-.11,0l-.18-.11a1.33,1.33,0,0,0-.29-.12,1.5,1.5,0,0,0-.4-.05,1,1,0,0,0-.4.07.86.86,0,0,0-.3.16.63.63,0,0,0-.26.53.55.55,0,0,0,.09.32,1,1,0,0,0,.25.21,1.69,1.69,0,0,0,.36.15l.4.13.41.14a1.66,1.66,0,0,1,.35.19.86.86,0,0,1,.25.29.76.76,0,0,1,.1.41,1.28,1.28,0,0,1-.09.48,1.05,1.05,0,0,1-.27.39,1.46,1.46,0,0,1-.44.26,1.8,1.8,0,0,1-.6.09,1.75,1.75,0,0,1-.72-.13,2.44,2.44,0,0,1-.55-.35l.09-.14,0,0,.07,0a.19.19,0,0,1,.12.06,1.15,1.15,0,0,0,.2.14,1.8,1.8,0,0,0,.31.14,1.44,1.44,0,0,0,.45.06,1.16,1.16,0,0,0,.44-.07.78.78,0,0,0,.32-.19.8.8,0,0,0,.2-.28,1,1,0,0,0,.06-.34.58.58,0,0,0-.09-.33,1,1,0,0,0-.26-.23,1.6,1.6,0,0,0-.35-.15l-.4-.13-.41-.14a1.55,1.55,0,0,1-.36-.19,1.12,1.12,0,0,1-.25-.28.9.9,0,0,1-.09-.42,1,1,0,0,1,.09-.41,1.06,1.06,0,0,1,.26-.34,1.27,1.27,0,0,1,.41-.24,1.92,1.92,0,0,1,.55-.08,1.85,1.85,0,0,1,.65.1,1.52,1.52,0,0,1,.51.32Z"/><path class="cls-2" d="M130.15,11.29v.08a3.1,3.1,0,0,0,.1.79,1.72,1.72,0,0,0,.3.57,1.28,1.28,0,0,0,.46.34,1.54,1.54,0,0,0,.61.12,1.6,1.6,0,0,0,.52-.07,1.42,1.42,0,0,0,.37-.15l.24-.14a.23.23,0,0,1,.13-.07.09.09,0,0,1,.08,0l.1.13a1.09,1.09,0,0,1-.25.22,1.92,1.92,0,0,1-.35.18,2.58,2.58,0,0,1-.42.12,2.28,2.28,0,0,1-.45,0,2,2,0,0,1-.74-.14,1.66,1.66,0,0,1-.58-.41,2.07,2.07,0,0,1-.37-.67,3,3,0,0,1-.13-.9,2.47,2.47,0,0,1,.13-.79,1.93,1.93,0,0,1,.35-.63,1.66,1.66,0,0,1,.56-.41,2.06,2.06,0,0,1,.76-.14,1.8,1.8,0,0,1,.62.11,1.35,1.35,0,0,1,.5.34,1.46,1.46,0,0,1,.34.55,2.09,2.09,0,0,1,.12.74.29.29,0,0,1,0,.12.11.11,0,0,1-.08,0Zm2.66-.24a1.72,1.72,0,0,0-.09-.58,1.24,1.24,0,0,0-.26-.43,1.36,1.36,0,0,0-.39-.27,1.31,1.31,0,0,0-.5-.09,1.42,1.42,0,0,0-.55.1,1.17,1.17,0,0,0-.42.27,1.62,1.62,0,0,0-.29.43,2,2,0,0,0-.14.57Z"/><path class="cls-2" d="M112.61,16.09a.28.28,0,0,1,0,.13.44.44,0,0,1-.08.11l-.11.08a.35.35,0,0,1-.14,0,.28.28,0,0,1-.13,0,.5.5,0,0,1-.12-.08.41.41,0,0,1-.07-.11.28.28,0,0,1,0-.13.32.32,0,0,1,0-.14.41.41,0,0,1,.07-.11.32.32,0,0,1,.12-.08.28.28,0,0,1,.13,0,.35.35,0,0,1,.14,0,.28.28,0,0,1,.11.08.44.44,0,0,1,.08.11A.32.32,0,0,1,112.61,16.09Zm-.17,1.37v4h-.38v-4Z"/><path class="cls-2" d="M113.8,21.44v-4H114a.11.11,0,0,1,.12.1l0,.58a2.27,2.27,0,0,1,.53-.54,1.16,1.16,0,0,1,.68-.2,1,1,0,0,1,.7.25,1.33,1.33,0,0,1,.35.7,1.71,1.71,0,0,1,.2-.43,1.17,1.17,0,0,1,.3-.29,1.41,1.41,0,0,1,.37-.18,1.37,1.37,0,0,1,.4-.05,1.53,1.53,0,0,1,.54.09,1.28,1.28,0,0,1,.4.29,1.37,1.37,0,0,1,.25.48,2.06,2.06,0,0,1,.09.64v2.54h-.38V18.9a1.35,1.35,0,0,0-.26-.89.84.84,0,0,0-.71-.31,1.06,1.06,0,0,0-.4.08,1,1,0,0,0-.34.22,1.1,1.1,0,0,0-.23.38,1.35,1.35,0,0,0-.09.52v2.54h-.38V18.9A1.48,1.48,0,0,0,116,18a.78.78,0,0,0-.68-.31,1,1,0,0,0-.59.19,2,2,0,0,0-.5.53v3Z"/><path class="cls-2" d="M120.61,18.18a2.14,2.14,0,0,1,.62-.58,1.51,1.51,0,0,1,.79-.21,1.37,1.37,0,0,1,1.14.51,2.42,2.42,0,0,1,.41,1.52,3.07,3.07,0,0,1-.11.82,1.91,1.91,0,0,1-.34.65,1.52,1.52,0,0,1-.54.44,1.62,1.62,0,0,1-.75.16,1.57,1.57,0,0,1-.7-.15,1.47,1.47,0,0,1-.51-.43v1.94h-.38V17.46h.21a.11.11,0,0,1,.12.1Zm0,2.39a1.45,1.45,0,0,0,.25.29,1.15,1.15,0,0,0,.26.19,1,1,0,0,0,.3.11,1.76,1.76,0,0,0,.33,0,1.35,1.35,0,0,0,.62-.13,1.1,1.1,0,0,0,.44-.36,1.54,1.54,0,0,0,.27-.56,2.68,2.68,0,0,0,.09-.72,2.09,2.09,0,0,0-.33-1.3,1.12,1.12,0,0,0-.94-.42,1.39,1.39,0,0,0-.72.2,2.2,2.2,0,0,0-.57.57Z"/><path class="cls-2" d="M124.79,19.29v.08a2.71,2.71,0,0,0,.1.79,1.72,1.72,0,0,0,.3.57,1.2,1.2,0,0,0,.46.34,1.51,1.51,0,0,0,.61.12,1.64,1.64,0,0,0,.52-.07,1.42,1.42,0,0,0,.37-.15l.24-.14a.23.23,0,0,1,.13-.07.09.09,0,0,1,.08,0l.1.13a1.09,1.09,0,0,1-.25.22,2,2,0,0,1-.36.18,2.45,2.45,0,0,1-.41.12,2.28,2.28,0,0,1-.45,0,2,2,0,0,1-.74-.14,1.5,1.5,0,0,1-.58-.41,2.07,2.07,0,0,1-.37-.67,2.75,2.75,0,0,1-.13-.9,2.47,2.47,0,0,1,.12-.79,1.79,1.79,0,0,1,.36-.63,1.66,1.66,0,0,1,.56-.41,2,2,0,0,1,.76-.14,1.8,1.8,0,0,1,.62.11,1.43,1.43,0,0,1,.5.34,1.77,1.77,0,0,1,.34.55,2.09,2.09,0,0,1,.12.74.17.17,0,0,1,0,.12s0,0-.08,0Zm2.65-.24a1.72,1.72,0,0,0-.09-.58,1.22,1.22,0,0,0-.25-.43,1.16,1.16,0,0,0-.89-.36,1.38,1.38,0,0,0-.55.1,1.17,1.17,0,0,0-.42.27,1.42,1.42,0,0,0-.29.43,2,2,0,0,0-.14.57Z"/><path class="cls-2" d="M129.19,18.42a2.15,2.15,0,0,1,.21-.43,1.49,1.49,0,0,1,.27-.33,1.13,1.13,0,0,1,.77-.27l.24,0a.66.66,0,0,1,.21.08l0,.27a.08.08,0,0,1-.08.06l-.14,0a.93.93,0,0,0-.26,0,1.25,1.25,0,0,0-.41.07,1,1,0,0,0-.32.21,1.3,1.3,0,0,0-.25.35,4.17,4.17,0,0,0-.19.47v2.58h-.39v-4H129a.12.12,0,0,1,.09,0,.19.19,0,0,1,0,.09Z"/><path class="cls-2" d="M134.85,17.46l-1.68,4h-.34l-1.68-4h.3a.12.12,0,0,1,.09,0,.12.12,0,0,1,.05.07l1.32,3.14A2.14,2.14,0,0,1,133,21c0-.11.06-.23.1-.34l1.32-3.14s0-.06.06-.07a.11.11,0,0,1,.08,0Z"/><path class="cls-2" d="M136.25,16.09a.28.28,0,0,1,0,.13.44.44,0,0,1-.08.11l-.11.08a.32.32,0,0,1-.14,0,.31.31,0,0,1-.13,0l-.11-.08a.28.28,0,0,1-.08-.11.28.28,0,0,1,0-.13.32.32,0,0,1,0-.14.44.44,0,0,1,.19-.19.31.31,0,0,1,.13,0,.32.32,0,0,1,.14,0,.28.28,0,0,1,.11.08.44.44,0,0,1,.08.11A.32.32,0,0,1,136.25,16.09Zm-.16,1.37v4h-.38v-4Z"/><path class="cls-2" d="M139,17.4a1.92,1.92,0,0,1,.77.14,1.56,1.56,0,0,1,.56.42,1.67,1.67,0,0,1,.36.64,2.82,2.82,0,0,1,.12.85,2.75,2.75,0,0,1-.12.84,1.79,1.79,0,0,1-.36.65,1.66,1.66,0,0,1-.56.41,2.11,2.11,0,0,1-.77.14,2.07,2.07,0,0,1-.77-.14,1.81,1.81,0,0,1-.57-.41,1.77,1.77,0,0,1-.35-.65,2.47,2.47,0,0,1-.13-.84,2.53,2.53,0,0,1,.13-.85,1.65,1.65,0,0,1,.35-.64,1.69,1.69,0,0,1,.57-.42A1.89,1.89,0,0,1,139,17.4Zm0,3.79a1.49,1.49,0,0,0,.62-.12,1.09,1.09,0,0,0,.44-.35,1.57,1.57,0,0,0,.27-.55,2.68,2.68,0,0,0,.09-.72,2.63,2.63,0,0,0-.09-.72,1.62,1.62,0,0,0-.27-.56,1.09,1.09,0,0,0-.44-.35,1.49,1.49,0,0,0-.62-.12,1.46,1.46,0,0,0-.62.12,1.19,1.19,0,0,0-.45.35,1.61,1.61,0,0,0-.26.56,2.29,2.29,0,0,0-.09.72,2.33,2.33,0,0,0,.09.72,1.56,1.56,0,0,0,.26.55,1.19,1.19,0,0,0,.45.35A1.46,1.46,0,0,0,139,21.19Z"/><path class="cls-2" d="M145,17.46v4h-.22a.1.1,0,0,1-.11-.1l0-.6a2.27,2.27,0,0,1-.64.56,1.56,1.56,0,0,1-.8.2,1.47,1.47,0,0,1-.58-.1,1.08,1.08,0,0,1-.42-.3,1.39,1.39,0,0,1-.24-.47,2,2,0,0,1-.09-.63V17.46h.39V20a1.36,1.36,0,0,0,.25.88,1,1,0,0,0,.78.32A1.46,1.46,0,0,0,144,21a1.94,1.94,0,0,0,.6-.55v-3Z"/><path class="cls-2" d="M148.49,18a.1.1,0,0,1-.09.06.21.21,0,0,1-.11-.05,2.19,2.19,0,0,0-.47-.23,1.5,1.5,0,0,0-.4-.05,1,1,0,0,0-.4.07.86.86,0,0,0-.3.16.63.63,0,0,0-.26.53.55.55,0,0,0,.09.32.87.87,0,0,0,.25.21,1.6,1.6,0,0,0,.35.15l.41.13.41.14a1.66,1.66,0,0,1,.35.19,1,1,0,0,1,.25.29.86.86,0,0,1,.1.41,1.28,1.28,0,0,1-.09.48,1.36,1.36,0,0,1-.27.39,1.46,1.46,0,0,1-.44.26,1.85,1.85,0,0,1-.6.09,1.75,1.75,0,0,1-.72-.13A2.06,2.06,0,0,1,146,21l.09-.14a.1.1,0,0,1,0,0l.07,0a.22.22,0,0,1,.12.06,1.15,1.15,0,0,0,.2.14,1.51,1.51,0,0,0,.31.14,1.44,1.44,0,0,0,.45.06,1.2,1.2,0,0,0,.44-.07.78.78,0,0,0,.32-.19.8.8,0,0,0,.2-.28,1,1,0,0,0,.06-.34.52.52,0,0,0-.1-.33.8.8,0,0,0-.25-.23,1.6,1.6,0,0,0-.35-.15l-.41-.13-.4-.14a1.55,1.55,0,0,1-.36-.19,1,1,0,0,1-.25-.28.9.9,0,0,1-.09-.42,1,1,0,0,1,.09-.41,1.06,1.06,0,0,1,.26-.34,1.27,1.27,0,0,1,.41-.24,1.92,1.92,0,0,1,.55-.08,1.89,1.89,0,0,1,.65.1,1.52,1.52,0,0,1,.51.32Z"/><path class="cls-2" d="M154.06,18A.1.1,0,0,1,154,18a.21.21,0,0,1-.11-.05l-.18-.11a1.33,1.33,0,0,0-.29-.12,1.5,1.5,0,0,0-.4-.05,1,1,0,0,0-.4.07.86.86,0,0,0-.3.16.63.63,0,0,0-.26.53.55.55,0,0,0,.09.32,1,1,0,0,0,.25.21,1.69,1.69,0,0,0,.36.15l.4.13.41.14a1.66,1.66,0,0,1,.35.19.86.86,0,0,1,.25.29.76.76,0,0,1,.1.41,1.28,1.28,0,0,1-.09.48,1.05,1.05,0,0,1-.27.39,1.46,1.46,0,0,1-.44.26,1.8,1.8,0,0,1-.6.09,1.75,1.75,0,0,1-.72-.13,2.24,2.24,0,0,1-.55-.35l.09-.14.05,0,.07,0a.19.19,0,0,1,.12.06,1.15,1.15,0,0,0,.2.14,1.8,1.8,0,0,0,.31.14,1.44,1.44,0,0,0,.45.06,1.2,1.2,0,0,0,.44-.07.78.78,0,0,0,.32-.19.8.8,0,0,0,.2-.28,1,1,0,0,0,.06-.34.58.58,0,0,0-.09-.33,1,1,0,0,0-.26-.23,1.6,1.6,0,0,0-.35-.15l-.41-.13-.4-.14a1.55,1.55,0,0,1-.36-.19,1.12,1.12,0,0,1-.25-.28.9.9,0,0,1-.09-.42,1,1,0,0,1,.09-.41,1.06,1.06,0,0,1,.26-.34,1.27,1.27,0,0,1,.41-.24,1.92,1.92,0,0,1,.55-.08,1.85,1.85,0,0,1,.65.1,1.52,1.52,0,0,1,.51.32Z"/><path class="cls-2" d="M158.36,17.46v4h-.21c-.07,0-.1,0-.12-.1l0-.6a2.41,2.41,0,0,1-.64.56,1.57,1.57,0,0,1-.81.2,1.5,1.5,0,0,1-.58-.1,1.12,1.12,0,0,1-.41-.3,1.41,1.41,0,0,1-.25-.47,2.41,2.41,0,0,1-.08-.63V17.46h.38V20a1.36,1.36,0,0,0,.26.88,1,1,0,0,0,.78.32,1.46,1.46,0,0,0,.73-.2,2.06,2.06,0,0,0,.6-.55v-3Z"/><path class="cls-2" d="M160,18.42a4.34,4.34,0,0,1,.21-.43,1.29,1.29,0,0,1,.28-.33,1.27,1.27,0,0,1,.34-.2,1.42,1.42,0,0,1,.42-.07l.25,0a.66.66,0,0,1,.21.08l0,.27s0,.06-.08.06l-.15,0a.85.85,0,0,0-.25,0,1.25,1.25,0,0,0-.41.07,1,1,0,0,0-.32.21,1.3,1.3,0,0,0-.25.35,4.15,4.15,0,0,0-.2.47v2.58h-.38v-4h.2a.13.13,0,0,1,.1,0,.19.19,0,0,1,0,.09Z"/><path class="cls-2" d="M162.73,21.44V17.88l-.56,0c-.07,0-.11,0-.11-.1v-.16h.67v-.5a1.8,1.8,0,0,1,.09-.6,1.09,1.09,0,0,1,.63-.69,1.59,1.59,0,0,1,.5-.08l.25,0a1.55,1.55,0,0,1,.23.06l0,.19s0,0,0,0H164a1.15,1.15,0,0,0-.37.06.75.75,0,0,0-.28.18,1,1,0,0,0-.19.34,1.75,1.75,0,0,0-.06.5v.49h1.29v.29h-1.28v3.57Z"/><path class="cls-2" d="M165.11,18a2.59,2.59,0,0,1,.66-.47,1.94,1.94,0,0,1,.78-.16,1.6,1.6,0,0,1,.56.1,1,1,0,0,1,.39.3,1.12,1.12,0,0,1,.24.46,1.9,1.9,0,0,1,.08.6v2.59h-.15a.14.14,0,0,1-.15-.11l-.05-.51a4.09,4.09,0,0,1-.33.28,1.79,1.79,0,0,1-.34.22,1.88,1.88,0,0,1-.38.14,2,2,0,0,1-.45,0,1.32,1.32,0,0,1-.39-.06,1,1,0,0,1-.34-.18.87.87,0,0,1-.24-.32,1.08,1.08,0,0,1-.09-.46.79.79,0,0,1,.14-.47,1.23,1.23,0,0,1,.45-.38,2.83,2.83,0,0,1,.79-.25,6.18,6.18,0,0,1,1.16-.12v-.41a1.32,1.32,0,0,0-.24-.85.84.84,0,0,0-.7-.3,1.36,1.36,0,0,0-.49.08,1.43,1.43,0,0,0-.35.18,1.54,1.54,0,0,0-.22.17.22.22,0,0,1-.15.08.08.08,0,0,1-.07,0,.12.12,0,0,1,0-.05Zm2.34,1.5a6.57,6.57,0,0,0-1,.09,2.45,2.45,0,0,0-.67.19,1,1,0,0,0-.4.28.65.65,0,0,0-.13.38,1,1,0,0,0,.07.35.69.69,0,0,0,.18.24.66.66,0,0,0,.25.13,1,1,0,0,0,.3.05,1.88,1.88,0,0,0,.43-.05,1.42,1.42,0,0,0,.36-.14,1.6,1.6,0,0,0,.31-.22l.28-.26Z"/><path class="cls-2" d="M171.77,18l0,0h0l-.11-.05a.7.7,0,0,0-.18-.12l-.29-.12a1.34,1.34,0,0,0-.42-.05,1.48,1.48,0,0,0-.61.12,1.19,1.19,0,0,0-.45.35,1.5,1.5,0,0,0-.28.55,2.75,2.75,0,0,0-.09.73,2.73,2.73,0,0,0,.09.74,1.67,1.67,0,0,0,.28.55,1.22,1.22,0,0,0,.44.34,1.48,1.48,0,0,0,.57.11,1.35,1.35,0,0,0,.48-.07,1.61,1.61,0,0,0,.32-.14l.2-.15a.15.15,0,0,1,.12-.07.09.09,0,0,1,.08,0l.1.13a1,1,0,0,1-.24.22,1.33,1.33,0,0,1-.31.18,2.4,2.4,0,0,1-.38.12,2,2,0,0,1-.43,0,1.59,1.59,0,0,1-.7-.14,1.41,1.41,0,0,1-.54-.4,1.79,1.79,0,0,1-.35-.64,2.83,2.83,0,0,1-.13-.86,2.68,2.68,0,0,1,.12-.83,1.79,1.79,0,0,1,.36-.65,1.56,1.56,0,0,1,.56-.42,1.89,1.89,0,0,1,.77-.15,1.85,1.85,0,0,1,.69.12,1.51,1.51,0,0,1,.52.34Z"/><path class="cls-2" d="M172.93,19.29v.08a3.1,3.1,0,0,0,.1.79,1.72,1.72,0,0,0,.3.57,1.28,1.28,0,0,0,.46.34,1.54,1.54,0,0,0,.61.12,1.6,1.6,0,0,0,.52-.07,1.42,1.42,0,0,0,.37-.15l.24-.14a.23.23,0,0,1,.13-.07.09.09,0,0,1,.08,0l.1.13a1.09,1.09,0,0,1-.25.22,1.92,1.92,0,0,1-.35.18,2.58,2.58,0,0,1-.42.12,2.28,2.28,0,0,1-.45,0,2,2,0,0,1-.74-.14,1.58,1.58,0,0,1-.58-.41,2.07,2.07,0,0,1-.37-.67,3,3,0,0,1-.13-.9,2.47,2.47,0,0,1,.13-.79A1.93,1.93,0,0,1,173,18a1.66,1.66,0,0,1,.56-.41,2.06,2.06,0,0,1,.76-.14,1.8,1.8,0,0,1,.62.11,1.35,1.35,0,0,1,.5.34,1.46,1.46,0,0,1,.34.55,2.09,2.09,0,0,1,.12.74.29.29,0,0,1,0,.12.11.11,0,0,1-.08,0Zm2.66-.24a1.72,1.72,0,0,0-.09-.58,1.24,1.24,0,0,0-.26-.43,1.36,1.36,0,0,0-.39-.27,1.31,1.31,0,0,0-.5-.09,1.42,1.42,0,0,0-.55.1,1.17,1.17,0,0,0-.42.27,1.62,1.62,0,0,0-.29.43,2,2,0,0,0-.14.57Z"/><path class="cls-2" d="M117.79,31.78v5.66h-.35V32.62a1.62,1.62,0,0,1,0-.22l-2.23,4a.18.18,0,0,1-.16.11H115a.17.17,0,0,1-.16-.11l-2.29-4a1.77,1.77,0,0,1,0,.23v4.82h-.36V31.78h.37a.22.22,0,0,1,.07.07l2.28,3.93a2.44,2.44,0,0,1,.1.24l.06-.12a.27.27,0,0,1,.06-.12l2.22-3.93a.14.14,0,0,1,.06-.07h.37Z"/><path class="cls-2" d="M120.74,33.4a1.92,1.92,0,0,1,.77.14,1.69,1.69,0,0,1,.57.42,1.79,1.79,0,0,1,.35.64,2.82,2.82,0,0,1,.12.85,2.75,2.75,0,0,1-.12.84,1.93,1.93,0,0,1-.35.65,1.81,1.81,0,0,1-.57.41,2.11,2.11,0,0,1-.77.14,2.07,2.07,0,0,1-.77-.14,1.81,1.81,0,0,1-.57-.41,1.93,1.93,0,0,1-.35-.65,2.47,2.47,0,0,1-.13-.84,2.53,2.53,0,0,1,.13-.85,1.79,1.79,0,0,1,.35-.64,1.69,1.69,0,0,1,.57-.42A1.89,1.89,0,0,1,120.74,33.4Zm0,3.79a1.49,1.49,0,0,0,.62-.12,1.19,1.19,0,0,0,.45-.35,1.75,1.75,0,0,0,.26-.55,2.68,2.68,0,0,0,.09-.72,2.63,2.63,0,0,0-.09-.72,1.81,1.81,0,0,0-.26-.56,1.19,1.19,0,0,0-.45-.35,1.49,1.49,0,0,0-.62-.12,1.46,1.46,0,0,0-.62.12,1.19,1.19,0,0,0-.45.35,1.61,1.61,0,0,0-.26.56,2.63,2.63,0,0,0-.09.72,2.68,2.68,0,0,0,.09.72,1.56,1.56,0,0,0,.26.55,1.19,1.19,0,0,0,.45.35A1.46,1.46,0,0,0,120.74,37.19Z"/><path class="cls-2" d="M126.72,31.62v5.82h-.2a.12.12,0,0,1-.13-.1l0-.63a2.06,2.06,0,0,1-.61.57,1.53,1.53,0,0,1-.79.21A1.41,1.41,0,0,1,123.8,37a2.38,2.38,0,0,1-.41-1.52,2.64,2.64,0,0,1,.12-.81,2,2,0,0,1,.33-.66,1.58,1.58,0,0,1,.55-.44,1.72,1.72,0,0,1,.74-.16,1.54,1.54,0,0,1,.7.15,1.52,1.52,0,0,1,.51.44V31.62Zm-.38,2.7a1.45,1.45,0,0,0-.5-.49,1.47,1.47,0,0,0-.64-.14,1.31,1.31,0,0,0-.61.13,1.33,1.33,0,0,0-.45.36,1.81,1.81,0,0,0-.26.56,2.73,2.73,0,0,0-.09.72,2.2,2.2,0,0,0,.32,1.31,1.15,1.15,0,0,0,1,.41,1.25,1.25,0,0,0,.71-.2,1.93,1.93,0,0,0,.57-.57Z"/><path class="cls-2" d="M128.17,35.29v.08a3.1,3.1,0,0,0,.1.79,1.72,1.72,0,0,0,.3.57,1.28,1.28,0,0,0,.46.34,1.54,1.54,0,0,0,.61.12,1.6,1.6,0,0,0,.52-.07,1.42,1.42,0,0,0,.37-.15l.24-.14a.23.23,0,0,1,.13-.07.09.09,0,0,1,.08,0l.1.13a1.09,1.09,0,0,1-.25.22,1.92,1.92,0,0,1-.35.18,2.58,2.58,0,0,1-.42.12,2.28,2.28,0,0,1-.45,0,2,2,0,0,1-.74-.14,1.66,1.66,0,0,1-.58-.41,2.07,2.07,0,0,1-.37-.67,3,3,0,0,1-.13-.9,2.47,2.47,0,0,1,.13-.79,1.93,1.93,0,0,1,.35-.63,1.66,1.66,0,0,1,.56-.41,2.06,2.06,0,0,1,.76-.14,1.8,1.8,0,0,1,.62.11,1.35,1.35,0,0,1,.5.34,1.46,1.46,0,0,1,.34.55,2.09,2.09,0,0,1,.12.74.29.29,0,0,1,0,.12.11.11,0,0,1-.08,0Zm2.66-.24a1.72,1.72,0,0,0-.09-.58,1.24,1.24,0,0,0-.26-.43,1.36,1.36,0,0,0-.39-.27,1.31,1.31,0,0,0-.5-.09,1.42,1.42,0,0,0-.55.1,1.17,1.17,0,0,0-.42.27,1.62,1.62,0,0,0-.29.43,2,2,0,0,0-.14.57Z"/><path class="cls-2" d="M132.57,34.42a2.15,2.15,0,0,1,.21-.43,1.49,1.49,0,0,1,.27-.33,1.51,1.51,0,0,1,.35-.2,1.32,1.32,0,0,1,.42-.07l.24,0a.83.83,0,0,1,.22.08l0,.27a.07.07,0,0,1-.07.06l-.15,0a.88.88,0,0,0-.26,0,1.3,1.3,0,0,0-.41.07A1.11,1.11,0,0,0,133,34a1.54,1.54,0,0,0-.24.35,2.89,2.89,0,0,0-.2.47v2.58h-.38v-4h.2a.13.13,0,0,1,.1,0,.12.12,0,0,1,0,.09Z"/><path class="cls-2" d="M134.85,34a2.59,2.59,0,0,1,.66-.47,1.94,1.94,0,0,1,.78-.16,1.6,1.6,0,0,1,.56.1,1.08,1.08,0,0,1,.4.3,1.24,1.24,0,0,1,.23.46,1.9,1.9,0,0,1,.08.6v2.59h-.15a.14.14,0,0,1-.15-.11l0-.51a4.09,4.09,0,0,1-.33.28,1.79,1.79,0,0,1-.34.22,1.88,1.88,0,0,1-.38.14,2,2,0,0,1-.44,0,1.34,1.34,0,0,1-.4-.06,1,1,0,0,1-.34-.18.87.87,0,0,1-.24-.32,1.08,1.08,0,0,1-.09-.46.86.86,0,0,1,.14-.47,1.23,1.23,0,0,1,.45-.38,2.83,2.83,0,0,1,.79-.25,6.18,6.18,0,0,1,1.16-.12v-.41A1.32,1.32,0,0,0,137,34a.84.84,0,0,0-.7-.3,1.4,1.4,0,0,0-.49.08,1.2,1.2,0,0,0-.34.18,1.72,1.72,0,0,0-.23.17.22.22,0,0,1-.15.08.08.08,0,0,1-.07,0,.12.12,0,0,1-.05,0Zm2.34,1.5a6.57,6.57,0,0,0-1,.09,2.45,2.45,0,0,0-.67.19,1,1,0,0,0-.4.28.64.64,0,0,0-.12.38,1,1,0,0,0,.06.35.69.69,0,0,0,.18.24.75.75,0,0,0,.25.13,1,1,0,0,0,.3,0,1.88,1.88,0,0,0,.43,0,1.42,1.42,0,0,0,.36-.14,1.6,1.6,0,0,0,.31-.22l.28-.26Z"/><path class="cls-2" d="M139.88,37.5a.85.85,0,0,1-.63-.22.94.94,0,0,1-.22-.69V33.87h-.57a.11.11,0,0,1-.08,0,.06.06,0,0,1,0-.06v-.15l.69-.05.09-1.42,0-.07a.09.09,0,0,1,.07,0h.18v1.52h1.26v.29h-1.26v2.7a1.11,1.11,0,0,0,0,.28.52.52,0,0,0,.12.19.66.66,0,0,0,.17.12.78.78,0,0,0,.22,0,.62.62,0,0,0,.25,0l.18-.09.12-.09a.15.15,0,0,1,.08,0s0,0,.06,0l.11.17a1.23,1.23,0,0,1-.39.27A1.19,1.19,0,0,1,139.88,37.5Z"/><path class="cls-2" d="M141.66,35.29v.08a2.69,2.69,0,0,0,.11.79,1.91,1.91,0,0,0,.29.57,1.32,1.32,0,0,0,.47.34,1.48,1.48,0,0,0,.61.12,1.68,1.68,0,0,0,.52-.07A1.34,1.34,0,0,0,144,37l.24-.14a.23.23,0,0,1,.13-.07.08.08,0,0,1,.08,0l.11.13a1.16,1.16,0,0,1-.26.22,1.64,1.64,0,0,1-.35.18,2.58,2.58,0,0,1-.42.12,2.12,2.12,0,0,1-.44,0,2,2,0,0,1-.75-.14,1.54,1.54,0,0,1-.57-.41,1.9,1.9,0,0,1-.37-.67,2.75,2.75,0,0,1-.13-.9,2.47,2.47,0,0,1,.12-.79,1.93,1.93,0,0,1,.35-.63,1.61,1.61,0,0,1,.57-.41,2,2,0,0,1,.75-.14,1.81,1.81,0,0,1,.63.11,1.43,1.43,0,0,1,.5.34,1.58,1.58,0,0,1,.33.55,2.09,2.09,0,0,1,.12.74c0,.06,0,.1,0,.12a.1.1,0,0,1-.08,0Zm2.66-.24a1.72,1.72,0,0,0-.09-.58A1.39,1.39,0,0,0,144,34a1.28,1.28,0,0,0-.4-.27,1.3,1.3,0,0,0-.49-.09,1.35,1.35,0,0,0-.55.1,1.12,1.12,0,0,0-.43.27,1.39,1.39,0,0,0-.28.43,2,2,0,0,0-.15.57Z"/><path class="cls-2" d="M112.61,40.09a.28.28,0,0,1,0,.13.44.44,0,0,1-.08.11l-.11.08a.35.35,0,0,1-.14,0,.28.28,0,0,1-.13,0,.5.5,0,0,1-.12-.08.41.41,0,0,1-.07-.11.28.28,0,0,1,0-.13.32.32,0,0,1,0-.14.41.41,0,0,1,.07-.11.32.32,0,0,1,.12-.08.28.28,0,0,1,.13,0,.35.35,0,0,1,.14,0,.28.28,0,0,1,.11.08.44.44,0,0,1,.08.11A.32.32,0,0,1,112.61,40.09Zm-.17,1.37v4h-.38v-4Z"/><path class="cls-2" d="M113.8,45.44v-4H114a.11.11,0,0,1,.12.1l0,.58a2.27,2.27,0,0,1,.53-.54,1.16,1.16,0,0,1,.68-.2,1,1,0,0,1,.7.25,1.33,1.33,0,0,1,.35.7,1.71,1.71,0,0,1,.2-.43,1.17,1.17,0,0,1,.3-.29,1.41,1.41,0,0,1,.37-.18,1.37,1.37,0,0,1,.4-.05,1.53,1.53,0,0,1,.54.09,1.28,1.28,0,0,1,.4.29,1.37,1.37,0,0,1,.25.48,2.06,2.06,0,0,1,.09.64v2.54h-.38V42.9a1.35,1.35,0,0,0-.26-.89.84.84,0,0,0-.71-.31,1.06,1.06,0,0,0-.4.08,1,1,0,0,0-.34.22,1.1,1.1,0,0,0-.23.38,1.35,1.35,0,0,0-.09.52v2.54h-.38V42.9A1.48,1.48,0,0,0,116,42a.78.78,0,0,0-.68-.31,1,1,0,0,0-.59.19,2,2,0,0,0-.5.53v3Z"/><path class="cls-2" d="M120.61,42.18a2.14,2.14,0,0,1,.62-.58,1.51,1.51,0,0,1,.79-.21,1.37,1.37,0,0,1,1.14.51,2.42,2.42,0,0,1,.41,1.52,3.07,3.07,0,0,1-.11.82,1.91,1.91,0,0,1-.34.65,1.52,1.52,0,0,1-.54.44,1.62,1.62,0,0,1-.75.16,1.57,1.57,0,0,1-.7-.15,1.47,1.47,0,0,1-.51-.43v1.94h-.38V41.46h.21a.11.11,0,0,1,.12.1Zm0,2.39a1.45,1.45,0,0,0,.25.29,1.15,1.15,0,0,0,.26.19,1,1,0,0,0,.3.11,1.76,1.76,0,0,0,.33,0,1.35,1.35,0,0,0,.62-.13,1.1,1.1,0,0,0,.44-.36,1.54,1.54,0,0,0,.27-.56,2.68,2.68,0,0,0,.09-.72,2.09,2.09,0,0,0-.33-1.3,1.12,1.12,0,0,0-.94-.42,1.39,1.39,0,0,0-.72.2,2.2,2.2,0,0,0-.57.57Z"/><path class="cls-2" d="M124.79,43.29v.08a2.71,2.71,0,0,0,.1.79,1.72,1.72,0,0,0,.3.57,1.2,1.2,0,0,0,.46.34,1.51,1.51,0,0,0,.61.12,1.64,1.64,0,0,0,.52-.07,1.42,1.42,0,0,0,.37-.15l.24-.14a.23.23,0,0,1,.13-.07.09.09,0,0,1,.08,0l.1.13a1.09,1.09,0,0,1-.25.22,2,2,0,0,1-.36.18,2.45,2.45,0,0,1-.41.12,2.28,2.28,0,0,1-.45,0,2,2,0,0,1-.74-.14,1.5,1.5,0,0,1-.58-.41,2.07,2.07,0,0,1-.37-.67,2.75,2.75,0,0,1-.13-.9,2.47,2.47,0,0,1,.12-.79,1.79,1.79,0,0,1,.36-.63,1.66,1.66,0,0,1,.56-.41,2,2,0,0,1,.76-.14,1.8,1.8,0,0,1,.62.11,1.43,1.43,0,0,1,.5.34,1.77,1.77,0,0,1,.34.55,2.09,2.09,0,0,1,.12.74.17.17,0,0,1,0,.12s0,0-.08,0Zm2.65-.24a1.72,1.72,0,0,0-.09-.58,1.22,1.22,0,0,0-.25-.43,1.16,1.16,0,0,0-.89-.36,1.38,1.38,0,0,0-.55.1,1.17,1.17,0,0,0-.42.27,1.42,1.42,0,0,0-.29.43,2,2,0,0,0-.14.57Z"/><path class="cls-2" d="M129.19,42.42a2.15,2.15,0,0,1,.21-.43,1.49,1.49,0,0,1,.27-.33,1.13,1.13,0,0,1,.77-.27l.24,0a.66.66,0,0,1,.21.08l0,.27a.08.08,0,0,1-.08.06l-.14,0a.93.93,0,0,0-.26,0,1.25,1.25,0,0,0-.41.07,1,1,0,0,0-.32.21,1.3,1.3,0,0,0-.25.35,4.17,4.17,0,0,0-.19.47v2.58h-.39v-4H129a.12.12,0,0,1,.09,0,.19.19,0,0,1,0,.09Z"/><path class="cls-2" d="M134.85,41.46l-1.68,4h-.34l-1.68-4h.3a.12.12,0,0,1,.09,0,.12.12,0,0,1,.05.07l1.32,3.14A2.14,2.14,0,0,1,133,45c0-.11.06-.23.1-.34l1.32-3.14s0-.06.06-.07a.11.11,0,0,1,.08,0Z"/><path class="cls-2" d="M136.25,40.09a.28.28,0,0,1,0,.13.44.44,0,0,1-.08.11l-.11.08a.32.32,0,0,1-.14,0,.31.31,0,0,1-.13,0l-.11-.08a.28.28,0,0,1-.08-.11.28.28,0,0,1,0-.13.32.32,0,0,1,0-.14.44.44,0,0,1,.19-.19.31.31,0,0,1,.13,0,.32.32,0,0,1,.14,0,.28.28,0,0,1,.11.08.44.44,0,0,1,.08.11A.32.32,0,0,1,136.25,40.09Zm-.16,1.37v4h-.38v-4Z"/><path class="cls-2" d="M139,41.4a1.92,1.92,0,0,1,.77.14,1.56,1.56,0,0,1,.56.42,1.67,1.67,0,0,1,.36.64,2.82,2.82,0,0,1,.12.85,2.75,2.75,0,0,1-.12.84,1.79,1.79,0,0,1-.36.65,1.66,1.66,0,0,1-.56.41,2.11,2.11,0,0,1-.77.14,2.07,2.07,0,0,1-.77-.14,1.81,1.81,0,0,1-.57-.41,1.77,1.77,0,0,1-.35-.65,2.47,2.47,0,0,1-.13-.84,2.53,2.53,0,0,1,.13-.85,1.65,1.65,0,0,1,.35-.64,1.69,1.69,0,0,1,.57-.42A1.89,1.89,0,0,1,139,41.4Zm0,3.79a1.49,1.49,0,0,0,.62-.12,1.09,1.09,0,0,0,.44-.35,1.57,1.57,0,0,0,.27-.55,2.68,2.68,0,0,0,.09-.72,2.63,2.63,0,0,0-.09-.72,1.62,1.62,0,0,0-.27-.56,1.09,1.09,0,0,0-.44-.35,1.49,1.49,0,0,0-.62-.12,1.46,1.46,0,0,0-.62.12,1.19,1.19,0,0,0-.45.35,1.61,1.61,0,0,0-.26.56,2.29,2.29,0,0,0-.09.72,2.33,2.33,0,0,0,.09.72,1.56,1.56,0,0,0,.26.55,1.19,1.19,0,0,0,.45.35A1.46,1.46,0,0,0,139,45.19Z"/><path class="cls-2" d="M145,41.46v4h-.22a.1.1,0,0,1-.11-.1l0-.6a2.27,2.27,0,0,1-.64.56,1.56,1.56,0,0,1-.8.2,1.47,1.47,0,0,1-.58-.1,1.08,1.08,0,0,1-.42-.3,1.39,1.39,0,0,1-.24-.47,2,2,0,0,1-.09-.63V41.46h.39V44a1.36,1.36,0,0,0,.25.88,1,1,0,0,0,.78.32A1.46,1.46,0,0,0,144,45a1.94,1.94,0,0,0,.6-.55v-3Z"/><path class="cls-2" d="M148.49,42a.1.1,0,0,1-.09.06.21.21,0,0,1-.11,0,2.19,2.19,0,0,0-.47-.23,1.5,1.5,0,0,0-.4,0,1,1,0,0,0-.4.07.86.86,0,0,0-.3.16.63.63,0,0,0-.26.53.55.55,0,0,0,.09.32.87.87,0,0,0,.25.21,1.6,1.6,0,0,0,.35.15l.41.13.41.14a1.66,1.66,0,0,1,.35.19,1,1,0,0,1,.25.29.86.86,0,0,1,.1.41,1.28,1.28,0,0,1-.09.48,1.36,1.36,0,0,1-.27.39,1.46,1.46,0,0,1-.44.26,1.85,1.85,0,0,1-.6.09,1.75,1.75,0,0,1-.72-.13A2.06,2.06,0,0,1,146,45l.09-.14a.1.1,0,0,1,0,0l.07,0a.22.22,0,0,1,.12.06,1.15,1.15,0,0,0,.2.14,1.51,1.51,0,0,0,.31.14,1.44,1.44,0,0,0,.45.06,1.2,1.2,0,0,0,.44-.07.78.78,0,0,0,.32-.19.8.8,0,0,0,.2-.28,1,1,0,0,0,.06-.34.52.52,0,0,0-.1-.33.8.8,0,0,0-.25-.23,1.6,1.6,0,0,0-.35-.15l-.41-.13-.4-.14a1.55,1.55,0,0,1-.36-.19,1,1,0,0,1-.25-.28.9.9,0,0,1-.09-.42,1,1,0,0,1,.09-.41,1.06,1.06,0,0,1,.26-.34,1.27,1.27,0,0,1,.41-.24,1.92,1.92,0,0,1,.55-.08,1.89,1.89,0,0,1,.65.1,1.52,1.52,0,0,1,.51.32Z"/><path class="cls-2" d="M154.06,42A.1.1,0,0,1,154,42a.21.21,0,0,1-.11,0l-.18-.11a1.33,1.33,0,0,0-.29-.12,1.5,1.5,0,0,0-.4,0,1,1,0,0,0-.4.07.86.86,0,0,0-.3.16.63.63,0,0,0-.26.53.55.55,0,0,0,.09.32,1,1,0,0,0,.25.21,1.69,1.69,0,0,0,.36.15l.4.13.41.14a1.66,1.66,0,0,1,.35.19.86.86,0,0,1,.25.29.76.76,0,0,1,.1.41,1.28,1.28,0,0,1-.09.48,1.05,1.05,0,0,1-.27.39,1.46,1.46,0,0,1-.44.26,1.8,1.8,0,0,1-.6.09,1.75,1.75,0,0,1-.72-.13,2.24,2.24,0,0,1-.55-.35l.09-.14.05,0,.07,0a.19.19,0,0,1,.12.06,1.15,1.15,0,0,0,.2.14,1.8,1.8,0,0,0,.31.14,1.44,1.44,0,0,0,.45.06,1.2,1.2,0,0,0,.44-.07.78.78,0,0,0,.32-.19.8.8,0,0,0,.2-.28,1,1,0,0,0,.06-.34.58.58,0,0,0-.09-.33,1,1,0,0,0-.26-.23,1.6,1.6,0,0,0-.35-.15l-.41-.13-.4-.14a1.55,1.55,0,0,1-.36-.19,1.12,1.12,0,0,1-.25-.28.9.9,0,0,1-.09-.42,1,1,0,0,1,.09-.41,1.06,1.06,0,0,1,.26-.34,1.27,1.27,0,0,1,.41-.24,1.92,1.92,0,0,1,.55-.08,1.85,1.85,0,0,1,.65.1,1.52,1.52,0,0,1,.51.32Z"/><path class="cls-2" d="M158.36,41.46v4h-.21c-.07,0-.1,0-.12-.1l0-.6a2.41,2.41,0,0,1-.64.56,1.57,1.57,0,0,1-.81.2,1.5,1.5,0,0,1-.58-.1,1.12,1.12,0,0,1-.41-.3,1.41,1.41,0,0,1-.25-.47,2.41,2.41,0,0,1-.08-.63V41.46h.38V44a1.36,1.36,0,0,0,.26.88,1,1,0,0,0,.78.32,1.46,1.46,0,0,0,.73-.2,2.06,2.06,0,0,0,.6-.55v-3Z"/><path class="cls-2" d="M160,42.42a4.34,4.34,0,0,1,.21-.43,1.29,1.29,0,0,1,.28-.33,1.27,1.27,0,0,1,.34-.2,1.42,1.42,0,0,1,.42-.07l.25,0a.66.66,0,0,1,.21.08l0,.27s0,.06-.08.06l-.15,0a.85.85,0,0,0-.25,0,1.25,1.25,0,0,0-.41.07,1,1,0,0,0-.32.21,1.3,1.3,0,0,0-.25.35,4.15,4.15,0,0,0-.2.47v2.58h-.38v-4h.2a.13.13,0,0,1,.1,0,.19.19,0,0,1,0,.09Z"/><path class="cls-2" d="M162.73,45.44V41.88l-.56,0c-.07,0-.11,0-.11-.1v-.16h.67v-.5a1.8,1.8,0,0,1,.09-.6,1.09,1.09,0,0,1,.63-.69,1.59,1.59,0,0,1,.5-.08l.25,0a1.55,1.55,0,0,1,.23.06l0,.19s0,0,0,0H164a1.15,1.15,0,0,0-.37.06.75.75,0,0,0-.28.18,1,1,0,0,0-.19.34,1.75,1.75,0,0,0-.06.5v.49h1.29v.29h-1.28v3.57Z"/><path class="cls-2" d="M165.11,42a2.59,2.59,0,0,1,.66-.47,1.94,1.94,0,0,1,.78-.16,1.6,1.6,0,0,1,.56.1,1,1,0,0,1,.39.3,1.12,1.12,0,0,1,.24.46,1.9,1.9,0,0,1,.08.6v2.59h-.15a.14.14,0,0,1-.15-.11l-.05-.51a4.09,4.09,0,0,1-.33.28,1.79,1.79,0,0,1-.34.22,1.88,1.88,0,0,1-.38.14,2,2,0,0,1-.45,0,1.32,1.32,0,0,1-.39-.06,1,1,0,0,1-.34-.18.87.87,0,0,1-.24-.32,1.08,1.08,0,0,1-.09-.46.79.79,0,0,1,.14-.47,1.23,1.23,0,0,1,.45-.38,2.83,2.83,0,0,1,.79-.25,6.18,6.18,0,0,1,1.16-.12v-.41a1.32,1.32,0,0,0-.24-.85.84.84,0,0,0-.7-.3,1.36,1.36,0,0,0-.49.08,1.43,1.43,0,0,0-.35.18,1.54,1.54,0,0,0-.22.17.22.22,0,0,1-.15.08.08.08,0,0,1-.07,0,.12.12,0,0,1,0,0Zm2.34,1.5a6.57,6.57,0,0,0-1,.09,2.45,2.45,0,0,0-.67.19,1,1,0,0,0-.4.28.65.65,0,0,0-.13.38,1,1,0,0,0,.07.35.69.69,0,0,0,.18.24.66.66,0,0,0,.25.13,1,1,0,0,0,.3,0,1.88,1.88,0,0,0,.43,0,1.42,1.42,0,0,0,.36-.14,1.6,1.6,0,0,0,.31-.22l.28-.26Z"/><path class="cls-2" d="M171.77,42l0,0h0l-.11,0a.7.7,0,0,0-.18-.12l-.29-.12a1.34,1.34,0,0,0-.42,0,1.48,1.48,0,0,0-.61.12,1.19,1.19,0,0,0-.45.35,1.5,1.5,0,0,0-.28.55,2.75,2.75,0,0,0-.09.73,2.73,2.73,0,0,0,.09.74,1.67,1.67,0,0,0,.28.55,1.22,1.22,0,0,0,.44.34,1.48,1.48,0,0,0,.57.11,1.35,1.35,0,0,0,.48-.07,1.61,1.61,0,0,0,.32-.14l.2-.15a.15.15,0,0,1,.12-.07.09.09,0,0,1,.08,0l.1.13a1,1,0,0,1-.24.22,1.33,1.33,0,0,1-.31.18,2.4,2.4,0,0,1-.38.12,2,2,0,0,1-.43,0,1.59,1.59,0,0,1-.7-.14,1.41,1.41,0,0,1-.54-.4,1.79,1.79,0,0,1-.35-.64,2.83,2.83,0,0,1-.13-.86,2.68,2.68,0,0,1,.12-.83,1.79,1.79,0,0,1,.36-.65,1.56,1.56,0,0,1,.56-.42,1.89,1.89,0,0,1,.77-.15,1.85,1.85,0,0,1,.69.12,1.51,1.51,0,0,1,.52.34Z"/><path class="cls-2" d="M172.93,43.29v.08a3.1,3.1,0,0,0,.1.79,1.72,1.72,0,0,0,.3.57,1.28,1.28,0,0,0,.46.34,1.54,1.54,0,0,0,.61.12,1.6,1.6,0,0,0,.52-.07,1.42,1.42,0,0,0,.37-.15l.24-.14a.23.23,0,0,1,.13-.07.09.09,0,0,1,.08,0l.1.13a1.09,1.09,0,0,1-.25.22,1.92,1.92,0,0,1-.35.18,2.58,2.58,0,0,1-.42.12,2.28,2.28,0,0,1-.45,0,2,2,0,0,1-.74-.14,1.58,1.58,0,0,1-.58-.41,2.07,2.07,0,0,1-.37-.67,3,3,0,0,1-.13-.9,2.47,2.47,0,0,1,.13-.79A1.93,1.93,0,0,1,173,42a1.66,1.66,0,0,1,.56-.41,2.06,2.06,0,0,1,.76-.14,1.8,1.8,0,0,1,.62.11,1.35,1.35,0,0,1,.5.34,1.46,1.46,0,0,1,.34.55,2.09,2.09,0,0,1,.12.74.29.29,0,0,1,0,.12.11.11,0,0,1-.08,0Zm2.66-.24a1.72,1.72,0,0,0-.09-.58,1.24,1.24,0,0,0-.26-.43,1.36,1.36,0,0,0-.39-.27,1.31,1.31,0,0,0-.5-.09,1.42,1.42,0,0,0-.55.1,1.17,1.17,0,0,0-.42.27,1.62,1.62,0,0,0-.29.43,2,2,0,0,0-.14.57Z"/></svg>